#!OML:ASF F:\VICON\USERDATA\INSTALL\rory3\rory3.ASF
:FULLY-SPECIFIED
:DEGREES
3270
root -0.129923 17.4758 4.33595 -538.605 -32.5405 -186.731
lowerback 13.9699 1.7537 -0.0264017
upperback 2.31713 2.10585 -0.341744
thorax -5.36739 0.950239 -0.722102
lowerneck -17.2102 3.34411 -10.589
upperneck 39.6868 4.75403 3.56647
head 16.95 -0.113704 4.08696
rclavicle -2.37548e-014 6.36111e-015
rhumerus -39.7156 -14.9293 -78.3463
rradius 37.6084
rwrist 3.29623
rhand -21.0001 12.4626
rfingers 7.12502
rthumb 5.37422 -17.4493
lclavicle -2.37548e-014 6.36111e-015
lhumerus -25.3649 -5.0322 85.6484
lradius 30.2782
lwrist -5.55661
lhand -20.2078 25.7165
lfingers 7.12502
lthumb 6.13924 55.6075
rfemur -11.8663 -4.756 17.7965
rtibia 45.2393
rfoot -23.3138 4.31253
rtoes 6.84243
lfemur -9.10458 3.97028 -26.3571
ltibia 32.5577
lfoot -16.6542 -14.9318
ltoes -2.73685
3271
root -0.17626 17.4691 4.36596 -538.813 -32.4923 -186.46
lowerback 13.9704 1.74743 0.402186
upperback 2.34322 2.16392 -0.278995
thorax -5.32545 0.971536 -0.907757
lowerneck -17.1493 3.46002 -10.4822
upperneck 39.6447 4.99429 3.30984
head 16.905 -0.0322918 3.98981
rclavicle -6.08281e-014 1.11319e-014
rhumerus -39.6058 -14.2096 -78.5781
rradius 37.774
rwrist 3.09643
rhand -21.2405 12.5663
rfingers 7.12502
rthumb 5.14211 -17.3513
lclavicle -6.08281e-014 1.11319e-014
lhumerus -25.5581 -4.26376 85.5887
lradius 30.378
lwrist -5.83306
lhand -20.2928 25.7378
lfingers 7.12502
lthumb 6.05711 55.6312
rfemur -11.6134 -4.49646 17.861
rtibia 44.8966
rfoot -23.6541 3.81891
rtoes 4.82379
lfemur -9.49371 4.37753 -26.1152
ltibia 33.4202
lfoot -16.9426 -15.9114
ltoes -3.94582
3272
root -0.221832 17.4625 4.40004 -538.891 -32.496 -186.312
lowerback 13.9637 1.71197 0.688892
upperback 2.34798 2.16385 -0.210103
thorax -5.30838 0.967257 -0.996649
lowerneck -17.1183 3.5179 -10.5487
upperneck 39.5504 5.19337 3.11711
head 16.8367 0.0210693 3.94402
rclavicle 1.03368e-014 2.14687e-014
rhumerus -39.4509 -13.6089 -78.6553
rradius 37.8917
rwrist 3.12455
rhand -20.8082 12.4934
rfingers 7.12502
rthumb 5.55955 -17.4137
lclavicle 1.03368e-014 2.14687e-014
lhumerus -25.6791 -3.12639 85.5275
lradius 30.3062
lwrist -6.2829
lhand -20.3069 25.4379
lfingers 7.12502
lthumb 6.04354 55.3317
rfemur -11.4719 -4.33538 17.7928
rtibia 44.5742
rfoot -23.7934 3.65834
rtoes 4.75047
lfemur -9.99277 4.77764 -25.9754
ltibia 34.3259
lfoot -17.2682 -16.7714
ltoes -6.326
3273
root -0.267406 17.4557 4.4317 -538.949 -32.5503 -186.259
lowerback 14.0123 1.66627 0.845154
upperback 2.32071 2.13174 -0.155333
thorax -5.36072 0.949135 -1.02348
lowerneck -17.145 3.53578 -10.6115
upperneck 39.5574 5.28717 3.02058
head 16.843 0.0337651 3.92815
rclavicle -2.34566e-014 5.56597e-015
rhumerus -39.3104 -12.9512 -78.718
rradius 38.0068
rwrist 3.03755
rhand -20.5226 12.5153
rfingers 7.12502
rthumb 5.83524 -17.3844
lclavicle -2.34566e-014 5.56597e-015
lhumerus -25.8609 -1.89716 85.4503
lradius 30.1974
lwrist -6.67963
lhand -20.1591 25.0919
lfingers 7.12502
lthumb 6.18619 54.9816
rfemur -11.2648 -4.29707 17.6192
rtibia 44.2677
rfoot -23.8521 3.82911
rtoes 6.23294
lfemur -10.4697 5.20763 -25.8714
ltibia 35.2731
lfoot -17.4454 -17.9001
ltoes -8.07986
3274
root -0.309825 17.446 4.46215 -539.118 -32.6146 -186.008
lowerback 14.0463 1.64103 1.10223
upperback 2.28909 2.1452 -0.0547142
thorax -5.40666 0.952035 -1.06682
lowerneck -17.1358 3.56065 -10.5571
upperneck 39.6272 5.3208 2.95469
head 16.8809 0.0369024 3.89628
rclavicle -3.07122e-014 1.51076e-014
rhumerus -39.2545 -12.298 -78.7703
rradius 38.2199
rwrist 2.96853
rhand -20.6128 12.6544
rfingers 7.12502
rthumb 5.74816 -17.2476
lclavicle -3.07122e-014 1.51076e-014
lhumerus -26.1839 -1.06885 85.4421
lradius 30.2648
lwrist -6.58266
lhand -20.1195 24.8697
lfingers 7.12502
lthumb 6.22445 54.7583
rfemur -11.0518 -4.36038 17.6527
rtibia 43.9669
rfoot -24.0278 3.98715
rtoes 6.8975
lfemur -10.9573 5.64326 -25.5321
ltibia 36.2412
lfoot -17.5349 -19.2137
ltoes -8.95521
3275
root -0.349734 17.4369 4.49237 -539.27 -32.7239 -185.645
lowerback 14.0151 1.57501 1.40349
upperback 2.25058 2.11397 0.083388
thorax -5.42497 0.933053 -1.08563
lowerneck -17.1728 3.57616 -10.603
upperneck 39.6645 5.35724 2.97654
head 16.9041 0.0439017 3.92264
rclavicle 8.27938e-014 -7.95139e-016
rhumerus -39.1403 -11.6811 -78.7903
rradius 38.3821
rwrist 3.15997
rhand -20.3625 12.4868
rfingers 7.12502
rthumb 5.98985 -17.4085
lclavicle 8.27938e-014 -7.95139e-016
lhumerus -26.5025 -0.505654 85.4876
lradius 30.3592
lwrist -6.06243
lhand -20.3033 24.506
lfingers 7.12502
lthumb 6.04697 54.3997
rfemur -10.9161 -4.39024 17.8392
rtibia 43.6401
rfoot -24.2382 3.92569
rtoes 7.03792
lfemur -11.5505 6.09454 -25.0629
ltibia 37.2274
lfoot -17.8844 -20.4272
ltoes -11.7996
3276
root -0.388744 17.4313 4.51745 -539.361 -32.8572 -185.427
lowerback 14.0095 1.51329 1.49487
upperback 2.21149 2.05681 0.220648
thorax -5.46664 0.904569 -0.983016
lowerneck -17.2866 3.58358 -10.7133
upperneck 39.7214 5.40853 3.02922
head 16.9523 0.050091 3.9802
rclavicle -5.4467e-014 -6.36111e-015
rhumerus -38.8063 -10.9884 -78.7813
rradius 38.1546
rwrist 3.19505
rhand -20.0775 12.445
rfingers 7.12502
rthumb 6.26499 -17.4423
lclavicle -5.4467e-014 -6.36111e-015
lhumerus -26.7885 0.176317 85.5392
lradius 30.3848
lwrist -5.75551
lhand -20.2646 24.3129
lfingers 7.12502
lthumb 6.08438 54.2055
rfemur -10.7481 -4.42566 17.9143
rtibia 43.277
rfoot -24.441 3.77109
rtoes 7.18782
lfemur -12.1227 6.57065 -24.6782
ltibia 38.225
lfoot -18.3938 -21.6133
ltoes -16.3542
3277
root -0.42754 17.4258 4.5415 -539.507 -33.0393 -185.301
lowerback 14.0912 1.47093 1.49719
upperback 2.20399 2.00901 0.347797
thorax -5.52538 0.880702 -0.844237
lowerneck -17.3869 3.6031 -10.7357
upperneck 39.8287 5.45701 3.03247
head 17.0309 0.0549585 4.00107
rclavicle -6.27166e-014 1.11319e-014
rhumerus -38.4006 -10.1321 -78.8095
rradius 37.6979
rwrist 2.89172
rhand -20.4076 12.7549
rfingers 7.12502
rthumb 5.94626 -17.1416
lclavicle -6.27166e-014 1.11319e-014
lhumerus -27.0954 0.702856 85.6406
lradius 30.42
lwrist -5.45442
lhand -20.0182 24.2696
lfingers 7.12502
lthumb 6.32226 54.1553
rfemur -10.4432 -4.58007 17.8776
rtibia 42.8768
rfoot -24.6212 3.60747
rtoes 7.15083
lfemur -12.6 6.92042 -24.344
ltibia 39.2135
lfoot -18.3714 -22.9711
ltoes -19.6121
3278
root -0.463199 17.4231 4.56963 -539.722 -33.2379 -185.002
lowerback 14.1952 1.43014 1.62835
upperback 2.19431 1.98476 0.512597
thorax -5.59477 0.865659 -0.743184
lowerneck -17.4114 3.61594 -10.5751
upperneck 39.8551 5.49065 2.86104
head 17.0651 0.0646401 3.90363
rclavicle 5.29761e-014 8.74653e-015
rhumerus -38.1143 -9.51251 -78.743
rradius 37.5202
rwrist 2.69543
rhand -20.6411 12.9447
rfingers 7.12502
rthumb 5.72087 -16.958
lclavicle 5.29761e-014 8.74653e-015
lhumerus -27.3151 0.998699 85.799
lradius 30.3966
lwrist -4.8819
lhand -19.8866 23.7871
lfingers 7.12502
lthumb 6.44927 53.6689
rfemur -10.1791 -4.76542 18.0097
rtibia 42.4527
rfoot -24.716 3.38064
rtoes 6.66923
lfemur -13.1322 7.22593 -23.8178
ltibia 40.192
lfoot -17.676 -24.4028
ltoes -21.058
3279
root -0.497347 17.4222 4.59549 -539.951 -33.3834 -184.611
lowerback 14.2527 1.40388 1.78843
upperback 2.17726 1.98536 0.696488
thorax -5.64553 0.862722 -0.641643
lowerneck -17.4319 3.62035 -10.3988
upperneck 39.8797 5.49656 2.70875
head 17.0993 0.0684922 3.80717
rclavicle 5.73494e-014 -3.10104e-014
rhumerus -37.9396 -9.25633 -78.5469
rradius 37.6239
rwrist 2.76335
rhand -20.6348 12.8834
rfingers 7.12502
rthumb 5.72694 -17.0192
lclavicle 5.73494e-014 -3.10104e-014
lhumerus -27.4891 1.34887 85.937
lradius 30.3591
lwrist -4.47553
lhand -19.7359 23.4505
lfingers 7.12502
lthumb 6.59475 53.3278
rfemur -9.93905 -4.81769 18.2671
rtibia 42.0298
rfoot -24.8619 2.97022
rtoes 5.64784
lfemur -13.7291 7.542 -23.1878
ltibia 41.1768
lfoot -17.2402 -25.4099
ltoes -23.3388
